<svg xmlns="http://www.w3.org/2000/svg" xmlns:xlink="http://www.w3.org/1999/xlink" width="1722" zoomAndPan="magnify" viewBox="0 0 1291.5 496.499985" height="662" preserveAspectRatio="xMidYMid meet" version="1.0"><defs><g/><clipPath id="d82992c343"><rect x="0" width="557" y="0" height="132"/></clipPath><clipPath id="72295ecb0f"><rect x="0" width="285" y="0" height="255"/></clipPath><clipPath id="feb7f83707"><rect x="0" width="470" y="0" height="232"/></clipPath><clipPath id="d566edffe4"><path d="M 137 213 L 229 213 L 229 336 L 137 336 Z M 137 213 " clip-rule="nonzero"/></clipPath><clipPath id="b5cc3817b6"><path d="M 197.363281 204.816406 L 237.011719 228.15625 L 168.816406 344.007812 L 129.167969 320.667969 Z M 197.363281 204.816406 " clip-rule="nonzero"/></clipPath><clipPath id="bb10966e49"><path d="M 217.1875 216.484375 C 222.445312 219.578125 226.257812 224.636719 227.789062 230.542969 C 229.316406 236.449219 228.4375 242.722656 225.34375 247.980469 L 180.515625 324.132812 C 177.421875 329.390625 172.367188 333.203125 166.457031 334.734375 C 160.550781 336.261719 154.28125 335.382812 149.023438 332.289062 C 143.765625 329.191406 139.953125 324.136719 138.421875 318.230469 C 136.894531 312.324219 137.773438 306.050781 140.867188 300.792969 L 185.691406 224.640625 C 188.789062 219.382812 193.84375 215.570312 199.75 214.039062 C 205.65625 212.511719 211.929688 213.390625 217.1875 216.484375 Z M 217.1875 216.484375 " clip-rule="nonzero"/></clipPath><clipPath id="e79a59ee9b"><path d="M 0 0 L 92 0 L 92 123 L 0 123 Z M 0 0 " clip-rule="nonzero"/></clipPath><clipPath id="f9171549c8"><path d="M 60.363281 -8.183594 L 100.011719 15.15625 L 31.816406 131.007812 L -7.832031 107.667969 Z M 60.363281 -8.183594 " clip-rule="nonzero"/></clipPath><clipPath id="897f3353c5"><path d="M 80.1875 3.484375 C 85.445312 6.578125 89.257812 11.636719 90.789062 17.542969 C 92.316406 23.449219 91.4375 29.722656 88.34375 34.980469 L 43.515625 111.132812 C 40.421875 116.390625 35.367188 120.203125 29.457031 121.734375 C 23.550781 123.261719 17.28125 122.382812 12.023438 119.289062 C 6.765625 116.191406 2.953125 111.136719 1.421875 105.230469 C -0.105469 99.324219 0.773438 93.050781 3.867188 87.792969 L 48.691406 11.640625 C 51.789062 6.382812 56.84375 2.570312 62.75 1.039062 C 68.65625 -0.488281 74.929688 0.390625 80.1875 3.484375 Z M 80.1875 3.484375 " clip-rule="nonzero"/></clipPath><clipPath id="6fb652d78b"><rect x="0" width="92" y="0" height="123"/></clipPath><clipPath id="1d7c6906f4"><path d="M 91.109375 213.191406 L 138.511719 213.191406 L 138.511719 260.59375 L 91.109375 260.59375 Z M 91.109375 213.191406 " clip-rule="nonzero"/></clipPath><clipPath id="1449133093"><path d="M 114.8125 213.191406 C 101.722656 213.191406 91.109375 223.804688 91.109375 236.894531 C 91.109375 249.984375 101.722656 260.59375 114.8125 260.59375 C 127.902344 260.59375 138.511719 249.984375 138.511719 236.894531 C 138.511719 223.804688 127.902344 213.191406 114.8125 213.191406 Z M 114.8125 213.191406 " clip-rule="nonzero"/></clipPath><clipPath id="f882f810d4"><path d="M 0.109375 0.191406 L 47.511719 0.191406 L 47.511719 47.59375 L 0.109375 47.59375 Z M 0.109375 0.191406 " clip-rule="nonzero"/></clipPath><clipPath id="fc7029fa00"><path d="M 23.8125 0.191406 C 10.722656 0.191406 0.109375 10.804688 0.109375 23.894531 C 0.109375 36.984375 10.722656 47.59375 23.8125 47.59375 C 36.902344 47.59375 47.511719 36.984375 47.511719 23.894531 C 47.511719 10.804688 36.902344 0.191406 23.8125 0.191406 Z M 23.8125 0.191406 " clip-rule="nonzero"/></clipPath><clipPath id="36f6b103bc"><rect x="0" width="48" y="0" height="48"/></clipPath><clipPath id="0ea4df10cf"><path d="M 0.398438 104.894531 L 311.792969 104.894531 L 311.792969 416.289062 L 0.398438 416.289062 Z M 0.398438 104.894531 " clip-rule="nonzero"/></clipPath><clipPath id="946edb285a"><path d="M 156.097656 104.894531 C 70.109375 104.894531 0.398438 174.601562 0.398438 260.589844 C 0.398438 346.578125 70.109375 416.289062 156.097656 416.289062 C 242.085938 416.289062 311.792969 346.578125 311.792969 260.589844 C 311.792969 174.601562 242.085938 104.894531 156.097656 104.894531 Z M 156.097656 104.894531 " clip-rule="nonzero"/></clipPath></defs><g transform="matrix(1, 0, 0, 1, 492, 346)"><g clip-path="url(#d82992c343)"><g fill="#ffffff" fill-opacity="1"><g transform="translate(1.843352, 55.147326)"><g><path d="M 37.390625 -41.25 L 20.828125 0.109375 L 16.515625 0.109375 L -0.0625 -41.25 L 6.359375 -41.25 L 18.671875 -10.265625 L 31.09375 -41.25 Z M 37.390625 -41.25 "/></g></g></g><g fill="#ffffff" fill-opacity="1"><g transform="translate(38.768995, 55.147326)"><g><path d="M 35.359375 -17.15625 C 35.398438 -17 35.421875 -16.84375 35.421875 -16.6875 C 35.421875 -16.53125 35.421875 -16.351562 35.421875 -16.15625 C 35.421875 -15.539062 35.359375 -14.957031 35.234375 -14.40625 L 8.515625 -14.40625 C 8.515625 -12.34375 9.066406 -10.570312 10.171875 -9.09375 C 11.285156 -7.625 12.664062 -6.488281 14.3125 -5.6875 C 15.96875 -4.894531 17.578125 -4.5 19.140625 -4.5 C 21.078125 -4.5 22.890625 -4.925781 24.578125 -5.78125 C 26.273438 -6.632812 27.59375 -7.957031 28.53125 -9.75 L 34.421875 -9.75 C 33.640625 -7.445312 32.453125 -5.523438 30.859375 -3.984375 C 29.265625 -2.453125 27.445312 -1.304688 25.40625 -0.546875 C 23.363281 0.203125 21.253906 0.578125 19.078125 0.578125 C 17.054688 0.578125 15.070312 0.238281 13.125 -0.4375 C 11.175781 -1.113281 9.425781 -2.132812 7.875 -3.5 C 6.320312 -4.863281 5.085938 -6.566406 4.171875 -8.609375 C 3.253906 -10.648438 2.796875 -13.03125 2.796875 -15.75 C 2.796875 -18.476562 3.253906 -20.851562 4.171875 -22.875 C 5.085938 -24.894531 6.320312 -26.582031 7.875 -27.9375 C 9.425781 -29.300781 11.175781 -30.320312 13.125 -31 C 15.070312 -31.6875 17.09375 -32.03125 19.1875 -32.03125 C 21.800781 -32.03125 24.300781 -31.472656 26.6875 -30.359375 C 29.082031 -29.253906 31.078125 -27.601562 32.671875 -25.40625 C 34.265625 -23.207031 35.160156 -20.457031 35.359375 -17.15625 Z M 29.34375 -19.140625 C 29 -21.046875 28.3125 -22.570312 27.28125 -23.71875 C 26.25 -24.863281 25.019531 -25.695312 23.59375 -26.21875 C 22.175781 -26.75 20.707031 -27.015625 19.1875 -27.015625 C 17.675781 -27.015625 16.191406 -26.75 14.734375 -26.21875 C 13.273438 -25.695312 12.007812 -24.851562 10.9375 -23.6875 C 9.863281 -22.519531 9.132812 -21.003906 8.75 -19.140625 Z M 29.34375 -19.140625 "/></g></g></g><g fill="#ffffff" fill-opacity="1"><g transform="translate(77.269666, 55.147326)"><g><path d="M 10.03125 -27.65625 C 11.164062 -29.25 12.5 -30.40625 14.03125 -31.125 C 15.570312 -31.84375 17.21875 -32.203125 18.96875 -32.203125 C 19.582031 -32.203125 20.203125 -32.160156 20.828125 -32.078125 C 21.453125 -32.003906 22.078125 -31.890625 22.703125 -31.734375 L 22.703125 -26.71875 C 21.765625 -26.988281 20.789062 -27.125 19.78125 -27.125 C 18.03125 -27.125 16.414062 -26.6875 14.9375 -25.8125 C 13.457031 -24.9375 12.269531 -23.75 11.375 -22.25 C 10.476562 -20.757812 10.03125 -19.039062 10.03125 -17.09375 L 10.03125 0 L 4.375 0 L 4.375 -31.5 L 10.03125 -31.5 Z M 10.03125 -27.65625 "/></g></g></g><g fill="#ffffff" fill-opacity="1"><g transform="translate(101.770089, 55.147326)"><g><path d="M 4.03125 -39.671875 C 4.03125 -40.765625 4.40625 -41.582031 5.15625 -42.125 C 5.914062 -42.664062 6.742188 -42.9375 7.640625 -42.9375 C 8.535156 -42.9375 9.34375 -42.671875 10.0625 -42.140625 C 10.78125 -41.617188 11.140625 -40.796875 11.140625 -39.671875 C 11.140625 -38.585938 10.769531 -37.757812 10.03125 -37.1875 C 9.289062 -36.625 8.472656 -36.34375 7.578125 -36.34375 C 6.722656 -36.34375 5.914062 -36.625 5.15625 -37.1875 C 4.40625 -37.757812 4.03125 -38.585938 4.03125 -39.671875 Z M 4.71875 -31.90625 L 4.71875 0 L 10.4375 0 L 10.4375 -31.90625 Z M 4.71875 -31.90625 "/></g></g></g><g fill="#ffffff" fill-opacity="1"><g transform="translate(117.462027, 55.147326)"><g><path d="M 6.703125 0 L 6.703125 -26.84375 L 1.859375 -26.84375 L 1.859375 -31.796875 L 6.703125 -31.796875 C 6.703125 -35.253906 7.609375 -37.734375 9.421875 -39.234375 C 11.234375 -40.734375 13.847656 -41.484375 17.265625 -41.484375 C 17.617188 -41.484375 17.988281 -41.472656 18.375 -41.453125 C 18.769531 -41.429688 19.160156 -41.398438 19.546875 -41.359375 L 19.546875 -36.578125 C 19.191406 -36.617188 18.835938 -36.648438 18.484375 -36.671875 C 18.140625 -36.691406 17.8125 -36.703125 17.5 -36.703125 C 15.988281 -36.703125 14.765625 -36.367188 13.828125 -35.703125 C 12.890625 -35.046875 12.421875 -33.742188 12.421875 -31.796875 L 18.84375 -31.796875 L 18.84375 -26.84375 L 12.421875 -26.84375 L 12.421875 0 Z M 6.703125 0 "/></g></g></g><g fill="#ffffff" fill-opacity="1"><g transform="translate(137.937387, 55.147326)"><g><path d="M 4.03125 -39.671875 C 4.03125 -40.765625 4.40625 -41.582031 5.15625 -42.125 C 5.914062 -42.664062 6.742188 -42.9375 7.640625 -42.9375 C 8.535156 -42.9375 9.34375 -42.671875 10.0625 -42.140625 C 10.78125 -41.617188 11.140625 -40.796875 11.140625 -39.671875 C 11.140625 -38.585938 10.769531 -37.757812 10.03125 -37.1875 C 9.289062 -36.625 8.472656 -36.34375 7.578125 -36.34375 C 6.722656 -36.34375 5.914062 -36.625 5.15625 -37.1875 C 4.40625 -37.757812 4.03125 -38.585938 4.03125 -39.671875 Z M 4.71875 -31.90625 L 4.71875 0 L 10.4375 0 L 10.4375 -31.90625 Z M 4.71875 -31.90625 "/></g></g></g><g fill="#ffffff" fill-opacity="1"><g transform="translate(153.629326, 55.147326)"><g><path d="M 35.359375 -17.15625 C 35.398438 -17 35.421875 -16.84375 35.421875 -16.6875 C 35.421875 -16.53125 35.421875 -16.351562 35.421875 -16.15625 C 35.421875 -15.539062 35.359375 -14.957031 35.234375 -14.40625 L 8.515625 -14.40625 C 8.515625 -12.34375 9.066406 -10.570312 10.171875 -9.09375 C 11.285156 -7.625 12.664062 -6.488281 14.3125 -5.6875 C 15.96875 -4.894531 17.578125 -4.5 19.140625 -4.5 C 21.078125 -4.5 22.890625 -4.925781 24.578125 -5.78125 C 26.273438 -6.632812 27.59375 -7.957031 28.53125 -9.75 L 34.421875 -9.75 C 33.640625 -7.445312 32.453125 -5.523438 30.859375 -3.984375 C 29.265625 -2.453125 27.445312 -1.304688 25.40625 -0.546875 C 23.363281 0.203125 21.253906 0.578125 19.078125 0.578125 C 17.054688 0.578125 15.070312 0.238281 13.125 -0.4375 C 11.175781 -1.113281 9.425781 -2.132812 7.875 -3.5 C 6.320312 -4.863281 5.085938 -6.566406 4.171875 -8.609375 C 3.253906 -10.648438 2.796875 -13.03125 2.796875 -15.75 C 2.796875 -18.476562 3.253906 -20.851562 4.171875 -22.875 C 5.085938 -24.894531 6.320312 -26.582031 7.875 -27.9375 C 9.425781 -29.300781 11.175781 -30.320312 13.125 -31 C 15.070312 -31.6875 17.09375 -32.03125 19.1875 -32.03125 C 21.800781 -32.03125 24.300781 -31.472656 26.6875 -30.359375 C 29.082031 -29.253906 31.078125 -27.601562 32.671875 -25.40625 C 34.265625 -23.207031 35.160156 -20.457031 35.359375 -17.15625 Z M 29.34375 -19.140625 C 29 -21.046875 28.3125 -22.570312 27.28125 -23.71875 C 26.25 -24.863281 25.019531 -25.695312 23.59375 -26.21875 C 22.175781 -26.75 20.707031 -27.015625 19.1875 -27.015625 C 17.675781 -27.015625 16.191406 -26.75 14.734375 -26.21875 C 13.273438 -25.695312 12.007812 -24.851562 10.9375 -23.6875 C 9.863281 -22.519531 9.132812 -21.003906 8.75 -19.140625 Z M 29.34375 -19.140625 "/></g></g></g><g fill="#ffffff" fill-opacity="1"><g transform="translate(192.129996, 55.147326)"><g><path d="M 35.421875 -40.84375 L 35.421875 0 L 29.703125 0 L 29.703125 -4.265625 C 28.566406 -2.546875 27.015625 -1.328125 25.046875 -0.609375 C 23.085938 0.109375 21.117188 0.488281 19.140625 0.53125 C 15.484375 0.53125 12.398438 -0.1875 9.890625 -1.625 C 7.378906 -3.070312 5.488281 -5.039062 4.21875 -7.53125 C 2.957031 -10.019531 2.328125 -12.816406 2.328125 -15.921875 C 2.328125 -18.960938 2.976562 -21.695312 4.28125 -24.125 C 5.59375 -26.550781 7.5 -28.484375 10 -29.921875 C 12.507812 -31.367188 15.535156 -32.09375 19.078125 -32.09375 C 21.023438 -32.09375 22.941406 -31.789062 24.828125 -31.1875 C 26.710938 -30.582031 28.335938 -29.347656 29.703125 -27.484375 L 29.703125 -40.84375 Z M 29.703125 -15.8125 C 29.703125 -18.34375 29.1875 -20.429688 28.15625 -22.078125 C 27.125 -23.734375 25.800781 -24.976562 24.1875 -25.8125 C 22.570312 -26.65625 20.867188 -27.078125 19.078125 -27.078125 C 16.742188 -27.078125 14.757812 -26.53125 13.125 -25.4375 C 11.488281 -24.34375 10.234375 -22.941406 9.359375 -21.234375 C 8.484375 -19.523438 8.046875 -17.71875 8.046875 -15.8125 C 8.046875 -13.675781 8.472656 -11.75 9.328125 -10.03125 C 10.191406 -8.320312 11.445312 -6.976562 13.09375 -6 C 14.75 -5.03125 16.722656 -4.546875 19.015625 -4.546875 C 20.804688 -4.546875 22.519531 -4.953125 24.15625 -5.765625 C 25.789062 -6.585938 27.125 -7.832031 28.15625 -9.5 C 29.1875 -11.175781 29.703125 -13.28125 29.703125 -15.8125 Z M 29.703125 -15.8125 "/></g></g></g><g fill="#ffffff" fill-opacity="1"><g transform="translate(232.030693, 55.147326)"><g/></g></g><g fill="#ffffff" fill-opacity="1"><g transform="translate(246.555931, 55.147326)"><g><path d="M 25.03125 -19.421875 C 23.863281 -16.117188 22.65625 -12.796875 21.40625 -9.453125 C 20.164062 -6.109375 19.019531 -2.878906 17.96875 0.234375 L 13.828125 0.234375 L -0.0625 -41.25 L 6.0625 -41.25 L 15.984375 -11.3125 L 22.703125 -30.390625 L 27.421875 -30.390625 L 34.078125 -11.375 C 35.671875 -16.238281 37.332031 -21.273438 39.0625 -26.484375 C 40.789062 -31.703125 42.414062 -36.625 43.9375 -41.25 L 50.125 -41.25 L 36.34375 0.234375 L 32.203125 0.234375 Z M 25.03125 -19.421875 "/></g></g></g><g fill="#ffffff" fill-opacity="1"><g transform="translate(296.37346, 55.147326)"><g><path d="M 37.046875 -15.75 C 37.046875 -13.03125 36.566406 -10.648438 35.609375 -8.609375 C 34.660156 -6.566406 33.367188 -4.863281 31.734375 -3.5 C 30.097656 -2.132812 28.257812 -1.113281 26.21875 -0.4375 C 24.175781 0.238281 22.085938 0.578125 19.953125 0.578125 C 17.847656 0.578125 15.785156 0.238281 13.765625 -0.4375 C 11.742188 -1.113281 9.925781 -2.132812 8.3125 -3.5 C 6.695312 -4.863281 5.410156 -6.566406 4.453125 -8.609375 C 3.503906 -10.648438 3.03125 -13.03125 3.03125 -15.75 C 3.03125 -18.476562 3.503906 -20.863281 4.453125 -22.90625 C 5.410156 -24.945312 6.707031 -26.644531 8.34375 -28 C 9.976562 -29.363281 11.816406 -30.382812 13.859375 -31.0625 C 15.898438 -31.75 17.988281 -32.09375 20.125 -32.09375 C 22.269531 -32.09375 24.34375 -31.75 26.34375 -31.0625 C 28.34375 -30.382812 30.148438 -29.363281 31.765625 -28 C 33.378906 -26.644531 34.660156 -24.945312 35.609375 -22.90625 C 36.566406 -20.863281 37.046875 -18.476562 37.046875 -15.75 Z M 8.75 -15.75 C 8.75 -13.257812 9.300781 -11.1875 10.40625 -9.53125 C 11.519531 -7.882812 12.941406 -6.640625 14.671875 -5.796875 C 16.398438 -4.960938 18.195312 -4.546875 20.0625 -4.546875 C 21.96875 -4.546875 23.773438 -4.960938 25.484375 -5.796875 C 27.203125 -6.640625 28.613281 -7.894531 29.71875 -9.5625 C 30.832031 -11.238281 31.390625 -13.300781 31.390625 -15.75 C 31.390625 -18.238281 30.84375 -20.316406 29.75 -21.984375 C 28.664062 -23.660156 27.253906 -24.914062 25.515625 -25.75 C 23.785156 -26.59375 21.988281 -27.015625 20.125 -27.015625 C 18.21875 -27.015625 16.398438 -26.59375 14.671875 -25.75 C 12.941406 -24.914062 11.519531 -23.671875 10.40625 -22.015625 C 9.300781 -20.367188 8.75 -18.28125 8.75 -15.75 Z M 8.75 -15.75 "/></g></g></g><g fill="#ffffff" fill-opacity="1"><g transform="translate(336.8575, 55.147326)"><g><path d="M 10.03125 -27.65625 C 11.164062 -29.25 12.5 -30.40625 14.03125 -31.125 C 15.570312 -31.84375 17.21875 -32.203125 18.96875 -32.203125 C 19.582031 -32.203125 20.203125 -32.160156 20.828125 -32.078125 C 21.453125 -32.003906 22.078125 -31.890625 22.703125 -31.734375 L 22.703125 -26.71875 C 21.765625 -26.988281 20.789062 -27.125 19.78125 -27.125 C 18.03125 -27.125 16.414062 -26.6875 14.9375 -25.8125 C 13.457031 -24.9375 12.269531 -23.75 11.375 -22.25 C 10.476562 -20.757812 10.03125 -19.039062 10.03125 -17.09375 L 10.03125 0 L 4.375 0 L 4.375 -31.5 L 10.03125 -31.5 Z M 10.03125 -27.65625 "/></g></g></g><g fill="#ffffff" fill-opacity="1"><g transform="translate(361.357937, 55.147326)"><g><path d="M 15.234375 -22.234375 L 23.984375 -31.5625 L 30.859375 -31.5625 L 18.140625 -17.96875 L 31.6875 -0.53125 L 31.6875 0 L 25.09375 0 L 14.46875 -14 L 10.390625 -9.625 L 10.390625 0 L 4.671875 0 L 4.671875 -40.84375 L 10.390625 -40.84375 L 10.390625 -16.453125 Z M 15.234375 -22.234375 "/></g></g></g><g fill="#ffffff" fill-opacity="1"><g transform="translate(393.850175, 55.147326)"><g><path d="M 6.703125 0 L 6.703125 -26.84375 L 1.859375 -26.84375 L 1.859375 -31.796875 L 6.703125 -31.796875 C 6.703125 -35.253906 7.609375 -37.734375 9.421875 -39.234375 C 11.234375 -40.734375 13.847656 -41.484375 17.265625 -41.484375 C 17.617188 -41.484375 17.988281 -41.472656 18.375 -41.453125 C 18.769531 -41.429688 19.160156 -41.398438 19.546875 -41.359375 L 19.546875 -36.578125 C 19.191406 -36.617188 18.835938 -36.648438 18.484375 -36.671875 C 18.140625 -36.691406 17.8125 -36.703125 17.5 -36.703125 C 15.988281 -36.703125 14.765625 -36.367188 13.828125 -35.703125 C 12.890625 -35.046875 12.421875 -33.742188 12.421875 -31.796875 L 18.84375 -31.796875 L 18.84375 -26.84375 L 12.421875 -26.84375 L 12.421875 0 Z M 6.703125 0 "/></g></g></g><g fill="#ffffff" fill-opacity="1"><g transform="translate(414.325549, 55.147326)"><g><path d="M 37.046875 -15.75 C 37.046875 -13.03125 36.566406 -10.648438 35.609375 -8.609375 C 34.660156 -6.566406 33.367188 -4.863281 31.734375 -3.5 C 30.097656 -2.132812 28.257812 -1.113281 26.21875 -0.4375 C 24.175781 0.238281 22.085938 0.578125 19.953125 0.578125 C 17.847656 0.578125 15.785156 0.238281 13.765625 -0.4375 C 11.742188 -1.113281 9.925781 -2.132812 8.3125 -3.5 C 6.695312 -4.863281 5.410156 -6.566406 4.453125 -8.609375 C 3.503906 -10.648438 3.03125 -13.03125 3.03125 -15.75 C 3.03125 -18.476562 3.503906 -20.863281 4.453125 -22.90625 C 5.410156 -24.945312 6.707031 -26.644531 8.34375 -28 C 9.976562 -29.363281 11.816406 -30.382812 13.859375 -31.0625 C 15.898438 -31.75 17.988281 -32.09375 20.125 -32.09375 C 22.269531 -32.09375 24.34375 -31.75 26.34375 -31.0625 C 28.34375 -30.382812 30.148438 -29.363281 31.765625 -28 C 33.378906 -26.644531 34.660156 -24.945312 35.609375 -22.90625 C 36.566406 -20.863281 37.046875 -18.476562 37.046875 -15.75 Z M 8.75 -15.75 C 8.75 -13.257812 9.300781 -11.1875 10.40625 -9.53125 C 11.519531 -7.882812 12.941406 -6.640625 14.671875 -5.796875 C 16.398438 -4.960938 18.195312 -4.546875 20.0625 -4.546875 C 21.96875 -4.546875 23.773438 -4.960938 25.484375 -5.796875 C 27.203125 -6.640625 28.613281 -7.894531 29.71875 -9.5625 C 30.832031 -11.238281 31.390625 -13.300781 31.390625 -15.75 C 31.390625 -18.238281 30.84375 -20.316406 29.75 -21.984375 C 28.664062 -23.660156 27.253906 -24.914062 25.515625 -25.75 C 23.785156 -26.59375 21.988281 -27.015625 20.125 -27.015625 C 18.21875 -27.015625 16.398438 -26.59375 14.671875 -25.75 C 12.941406 -24.914062 11.519531 -23.671875 10.40625 -22.015625 C 9.300781 -20.367188 8.75 -18.28125 8.75 -15.75 Z M 8.75 -15.75 "/></g></g></g><g fill="#ffffff" fill-opacity="1"><g transform="translate(454.80959, 55.147326)"><g><path d="M 10.03125 -27.65625 C 11.164062 -29.25 12.5 -30.40625 14.03125 -31.125 C 15.570312 -31.84375 17.21875 -32.203125 18.96875 -32.203125 C 19.582031 -32.203125 20.203125 -32.160156 20.828125 -32.078125 C 21.453125 -32.003906 22.078125 -31.890625 22.703125 -31.734375 L 22.703125 -26.71875 C 21.765625 -26.988281 20.789062 -27.125 19.78125 -27.125 C 18.03125 -27.125 16.414062 -26.6875 14.9375 -25.8125 C 13.457031 -24.9375 12.269531 -23.75 11.375 -22.25 C 10.476562 -20.757812 10.03125 -19.039062 10.03125 -17.09375 L 10.03125 0 L 4.375 0 L 4.375 -31.5 L 10.03125 -31.5 Z M 10.03125 -27.65625 "/></g></g></g><g fill="#ffffff" fill-opacity="1"><g transform="translate(479.309998, 55.147326)"><g><path d="M 35.296875 -12.015625 C 34.796875 -9.210938 33.726562 -6.890625 32.09375 -5.046875 C 30.457031 -3.203125 28.507812 -1.820312 26.25 -0.90625 C 24 0.0078125 21.664062 0.46875 19.25 0.46875 C 17.226562 0.46875 15.242188 0.128906 13.296875 -0.546875 C 11.359375 -1.234375 9.609375 -2.253906 8.046875 -3.609375 C 6.492188 -4.972656 5.257812 -6.664062 4.34375 -8.6875 C 3.425781 -10.71875 2.96875 -13.09375 2.96875 -15.8125 C 2.96875 -18.53125 3.425781 -20.910156 4.34375 -22.953125 C 5.257812 -24.992188 6.503906 -26.6875 8.078125 -28.03125 C 9.648438 -29.375 11.410156 -30.382812 13.359375 -31.0625 C 15.304688 -31.75 17.3125 -32.09375 19.375 -32.09375 C 21.78125 -32.09375 24.09375 -31.632812 26.3125 -30.71875 C 28.53125 -29.800781 30.457031 -28.410156 32.09375 -26.546875 C 33.726562 -24.679688 34.796875 -22.347656 35.296875 -19.546875 L 29.40625 -19.546875 C 28.707031 -22.078125 27.414062 -23.953125 25.53125 -25.171875 C 23.644531 -26.398438 21.609375 -27.015625 19.421875 -27.015625 C 17.671875 -27.015625 15.96875 -26.601562 14.3125 -25.78125 C 12.664062 -24.96875 11.316406 -23.734375 10.265625 -22.078125 C 9.210938 -20.429688 8.6875 -18.34375 8.6875 -15.8125 C 8.6875 -13.28125 9.210938 -11.175781 10.265625 -9.5 C 11.316406 -7.832031 12.664062 -6.585938 14.3125 -5.765625 C 15.96875 -4.953125 17.691406 -4.546875 19.484375 -4.546875 C 21.660156 -4.546875 23.679688 -5.164062 25.546875 -6.40625 C 27.421875 -7.65625 28.707031 -9.523438 29.40625 -12.015625 Z M 35.296875 -12.015625 "/></g></g></g><g fill="#ffffff" fill-opacity="1"><g transform="translate(517.519018, 55.147326)"><g><path d="M 35.359375 -17.15625 C 35.398438 -17 35.421875 -16.84375 35.421875 -16.6875 C 35.421875 -16.53125 35.421875 -16.351562 35.421875 -16.15625 C 35.421875 -15.539062 35.359375 -14.957031 35.234375 -14.40625 L 8.515625 -14.40625 C 8.515625 -12.34375 9.066406 -10.570312 10.171875 -9.09375 C 11.285156 -7.625 12.664062 -6.488281 14.3125 -5.6875 C 15.96875 -4.894531 17.578125 -4.5 19.140625 -4.5 C 21.078125 -4.5 22.890625 -4.925781 24.578125 -5.78125 C 26.273438 -6.632812 27.59375 -7.957031 28.53125 -9.75 L 34.421875 -9.75 C 33.640625 -7.445312 32.453125 -5.523438 30.859375 -3.984375 C 29.265625 -2.453125 27.445312 -1.304688 25.40625 -0.546875 C 23.363281 0.203125 21.253906 0.578125 19.078125 0.578125 C 17.054688 0.578125 15.070312 0.238281 13.125 -0.4375 C 11.175781 -1.113281 9.425781 -2.132812 7.875 -3.5 C 6.320312 -4.863281 5.085938 -6.566406 4.171875 -8.609375 C 3.253906 -10.648438 2.796875 -13.03125 2.796875 -15.75 C 2.796875 -18.476562 3.253906 -20.851562 4.171875 -22.875 C 5.085938 -24.894531 6.320312 -26.582031 7.875 -27.9375 C 9.425781 -29.300781 11.175781 -30.320312 13.125 -31 C 15.070312 -31.6875 17.09375 -32.03125 19.1875 -32.03125 C 21.800781 -32.03125 24.300781 -31.472656 26.6875 -30.359375 C 29.082031 -29.253906 31.078125 -27.601562 32.671875 -25.40625 C 34.265625 -23.207031 35.160156 -20.457031 35.359375 -17.15625 Z M 29.34375 -19.140625 C 29 -21.046875 28.3125 -22.570312 27.28125 -23.71875 C 26.25 -24.863281 25.019531 -25.695312 23.59375 -26.21875 C 22.175781 -26.75 20.707031 -27.015625 19.1875 -27.015625 C 17.675781 -27.015625 16.191406 -26.75 14.734375 -26.21875 C 13.273438 -25.695312 12.007812 -24.851562 10.9375 -23.6875 C 9.863281 -22.519531 9.132812 -21.003906 8.75 -19.140625 Z M 29.34375 -19.140625 "/></g></g></g><g fill="#ffffff" fill-opacity="1"><g transform="translate(1.843352, 116.645287)"><g><path d="M 18.5 -35.765625 L 18.5 -5.484375 L 26.078125 -5.484375 L 26.078125 0 L 5.015625 0 L 5.015625 -5.484375 L 12.609375 -5.484375 L 12.609375 -35.765625 L 5.015625 -35.765625 L 5.015625 -41.1875 L 26.078125 -41.1875 L 26.078125 -35.765625 Z M 18.5 -35.765625 "/></g></g></g><g fill="#ffffff" fill-opacity="1"><g transform="translate(32.877226, 116.645287)"><g><path d="M 10.09375 -27.65625 C 11.257812 -29.363281 12.664062 -30.519531 14.3125 -31.125 C 15.96875 -31.726562 17.789062 -32.03125 19.78125 -32.03125 C 23.007812 -32.03125 25.625 -31.40625 27.625 -30.15625 C 29.625 -28.914062 31.097656 -27.164062 32.046875 -24.90625 C 33.003906 -22.65625 33.484375 -20.015625 33.484375 -16.984375 L 33.484375 0 L 27.828125 0 L 27.828125 -16.921875 C 27.828125 -18.898438 27.601562 -20.648438 27.15625 -22.171875 C 26.707031 -23.691406 25.867188 -24.867188 24.640625 -25.703125 C 23.421875 -26.535156 21.664062 -26.953125 19.375 -26.953125 C 17.382812 -26.953125 15.695312 -26.515625 14.3125 -25.640625 C 12.9375 -24.765625 11.890625 -23.585938 11.171875 -22.109375 C 10.453125 -20.628906 10.09375 -18.976562 10.09375 -17.15625 L 10.09375 0 L 4.375 0 L 4.375 -31.5625 L 10.09375 -31.5625 Z M 10.09375 -27.65625 "/></g></g></g><g fill="#ffffff" fill-opacity="1"><g transform="translate(70.677891, 116.645287)"><g><path d="M 11.84375 -31.5625 L 18.78125 -31.5625 L 18.78125 -27.015625 L 11.84375 -27.015625 L 11.84375 -9.21875 C 11.84375 -7.351562 12.269531 -6.117188 13.125 -5.515625 C 13.976562 -4.910156 15.125 -4.609375 16.5625 -4.609375 C 16.914062 -4.609375 17.296875 -4.617188 17.703125 -4.640625 C 18.109375 -4.660156 18.53125 -4.6875 18.96875 -4.71875 L 18.96875 0.0625 C 18.5 0.09375 18.050781 0.117188 17.625 0.140625 C 17.195312 0.160156 16.769531 0.171875 16.34375 0.171875 C 14.28125 0.171875 12.476562 -0.109375 10.9375 -0.671875 C 9.40625 -1.234375 8.21875 -2.191406 7.375 -3.546875 C 6.539062 -4.910156 6.125 -6.820312 6.125 -9.28125 L 6.125 -27.015625 L 1.40625 -27.015625 L 1.40625 -31.5625 L 6.125 -31.5625 L 6.125 -37.453125 L 11.84375 -38.5625 Z M 11.84375 -31.5625 "/></g></g></g><g fill="#ffffff" fill-opacity="1"><g transform="translate(90.744909, 116.645287)"><g><path d="M 35.359375 -17.15625 C 35.398438 -17 35.421875 -16.84375 35.421875 -16.6875 C 35.421875 -16.53125 35.421875 -16.351562 35.421875 -16.15625 C 35.421875 -15.539062 35.359375 -14.957031 35.234375 -14.40625 L 8.515625 -14.40625 C 8.515625 -12.34375 9.066406 -10.570312 10.171875 -9.09375 C 11.285156 -7.625 12.664062 -6.488281 14.3125 -5.6875 C 15.96875 -4.894531 17.578125 -4.5 19.140625 -4.5 C 21.078125 -4.5 22.890625 -4.925781 24.578125 -5.78125 C 26.273438 -6.632812 27.59375 -7.957031 28.53125 -9.75 L 34.421875 -9.75 C 33.640625 -7.445312 32.453125 -5.523438 30.859375 -3.984375 C 29.265625 -2.453125 27.445312 -1.304688 25.40625 -0.546875 C 23.363281 0.203125 21.253906 0.578125 19.078125 0.578125 C 17.054688 0.578125 15.070312 0.238281 13.125 -0.4375 C 11.175781 -1.113281 9.425781 -2.132812 7.875 -3.5 C 6.320312 -4.863281 5.085938 -6.566406 4.171875 -8.609375 C 3.253906 -10.648438 2.796875 -13.03125 2.796875 -15.75 C 2.796875 -18.476562 3.253906 -20.851562 4.171875 -22.875 C 5.085938 -24.894531 6.320312 -26.582031 7.875 -27.9375 C 9.425781 -29.300781 11.175781 -30.320312 13.125 -31 C 15.070312 -31.6875 17.09375 -32.03125 19.1875 -32.03125 C 21.800781 -32.03125 24.300781 -31.472656 26.6875 -30.359375 C 29.082031 -29.253906 31.078125 -27.601562 32.671875 -25.40625 C 34.265625 -23.207031 35.160156 -20.457031 35.359375 -17.15625 Z M 29.34375 -19.140625 C 29 -21.046875 28.3125 -22.570312 27.28125 -23.71875 C 26.25 -24.863281 25.019531 -25.695312 23.59375 -26.21875 C 22.175781 -26.75 20.707031 -27.015625 19.1875 -27.015625 C 17.675781 -27.015625 16.191406 -26.75 14.734375 -26.21875 C 13.273438 -25.695312 12.007812 -24.851562 10.9375 -23.6875 C 9.863281 -22.519531 9.132812 -21.003906 8.75 -19.140625 Z M 29.34375 -19.140625 "/></g></g></g><g fill="#ffffff" fill-opacity="1"><g transform="translate(129.245579, 116.645287)"><g><path d="M 4.375 0 L 4.375 -40.84375 L 10.09375 -40.84375 L 10.09375 0 Z M 4.375 0 "/></g></g></g><g fill="#ffffff" fill-opacity="1"><g transform="translate(143.712493, 116.645287)"><g><path d="M 4.375 0 L 4.375 -40.84375 L 10.09375 -40.84375 L 10.09375 0 Z M 4.375 0 "/></g></g></g><g fill="#ffffff" fill-opacity="1"><g transform="translate(158.179406, 116.645287)"><g><path d="M 4.375 0 L 4.375 -40.84375 L 10.09375 -40.84375 L 10.09375 0 Z M 4.375 0 "/></g></g></g><g fill="#ffffff" fill-opacity="1"><g transform="translate(172.64632, 116.645287)"><g><path d="M 4.03125 -39.671875 C 4.03125 -40.765625 4.40625 -41.582031 5.15625 -42.125 C 5.914062 -42.664062 6.742188 -42.9375 7.640625 -42.9375 C 8.535156 -42.9375 9.34375 -42.671875 10.0625 -42.140625 C 10.78125 -41.617188 11.140625 -40.796875 11.140625 -39.671875 C 11.140625 -38.585938 10.769531 -37.757812 10.03125 -37.1875 C 9.289062 -36.625 8.472656 -36.34375 7.578125 -36.34375 C 6.722656 -36.34375 5.914062 -36.625 5.15625 -37.1875 C 4.40625 -37.757812 4.03125 -38.585938 4.03125 -39.671875 Z M 4.71875 -31.90625 L 4.71875 0 L 10.4375 0 L 10.4375 -31.90625 Z M 4.71875 -31.90625 "/></g></g></g><g fill="#ffffff" fill-opacity="1"><g transform="translate(188.338258, 116.645287)"><g><path d="M 36 -1.171875 C 36 1.285156 35.53125 3.378906 34.59375 5.109375 C 33.664062 6.835938 32.410156 8.234375 30.828125 9.296875 C 29.253906 10.367188 27.503906 11.15625 25.578125 11.65625 C 23.660156 12.164062 21.726562 12.421875 19.78125 12.421875 C 17.132812 12.421875 14.644531 12.0625 12.3125 11.34375 C 9.976562 10.625 8.082031 9.492188 6.625 7.953125 C 5.164062 6.421875 4.4375 4.46875 4.4375 2.09375 L 10.09375 2.09375 C 10.09375 3.414062 10.585938 4.457031 11.578125 5.21875 C 12.566406 5.976562 13.78125 6.519531 15.21875 6.84375 C 16.664062 7.175781 18.066406 7.34375 19.421875 7.34375 C 21.140625 7.34375 22.832031 7.0625 24.5 6.5 C 26.175781 5.9375 27.554688 5.03125 28.640625 3.78125 C 29.734375 2.539062 30.28125 0.890625 30.28125 -1.171875 L 30.28125 -4.5 C 28.914062 -2.707031 27.289062 -1.519531 25.40625 -0.9375 C 23.519531 -0.351562 21.601562 -0.0625 19.65625 -0.0625 C 16.125 -0.0625 13.113281 -0.769531 10.625 -2.1875 C 8.132812 -3.601562 6.226562 -5.5 4.90625 -7.875 C 3.582031 -10.25 2.921875 -12.851562 2.921875 -15.6875 C 2.921875 -18.570312 3.550781 -21.257812 4.8125 -23.75 C 6.070312 -26.238281 7.945312 -28.25 10.4375 -29.78125 C 12.925781 -31.320312 16 -32.09375 19.65625 -32.09375 C 21.601562 -32.09375 23.578125 -31.734375 25.578125 -31.015625 C 27.585938 -30.296875 29.175781 -29.078125 30.34375 -27.359375 L 30.34375 -31.5625 L 36 -31.5625 Z M 19.609375 -5.078125 C 21.972656 -5.078125 23.941406 -5.628906 25.515625 -6.734375 C 27.097656 -7.847656 28.285156 -9.28125 29.078125 -11.03125 C 29.878906 -12.78125 30.28125 -14.625 30.28125 -16.5625 C 30.28125 -18.46875 29.890625 -20.21875 29.109375 -21.8125 C 28.335938 -23.414062 27.160156 -24.691406 25.578125 -25.640625 C 24.003906 -26.597656 22.050781 -27.078125 19.71875 -27.078125 C 17.382812 -27.078125 15.390625 -26.519531 13.734375 -25.40625 C 12.085938 -24.300781 10.828125 -22.878906 9.953125 -21.140625 C 9.078125 -19.410156 8.640625 -17.59375 8.640625 -15.6875 C 8.671875 -13.863281 9.113281 -12.132812 9.96875 -10.5 C 10.832031 -8.863281 12.078125 -7.550781 13.703125 -6.5625 C 15.335938 -5.570312 17.304688 -5.078125 19.609375 -5.078125 Z M 19.609375 -5.078125 "/></g></g></g><g fill="#ffffff" fill-opacity="1"><g transform="translate(228.822298, 116.645287)"><g><path d="M 35.359375 -17.15625 C 35.398438 -17 35.421875 -16.84375 35.421875 -16.6875 C 35.421875 -16.53125 35.421875 -16.351562 35.421875 -16.15625 C 35.421875 -15.539062 35.359375 -14.957031 35.234375 -14.40625 L 8.515625 -14.40625 C 8.515625 -12.34375 9.066406 -10.570312 10.171875 -9.09375 C 11.285156 -7.625 12.664062 -6.488281 14.3125 -5.6875 C 15.96875 -4.894531 17.578125 -4.5 19.140625 -4.5 C 21.078125 -4.5 22.890625 -4.925781 24.578125 -5.78125 C 26.273438 -6.632812 27.59375 -7.957031 28.53125 -9.75 L 34.421875 -9.75 C 33.640625 -7.445312 32.453125 -5.523438 30.859375 -3.984375 C 29.265625 -2.453125 27.445312 -1.304688 25.40625 -0.546875 C 23.363281 0.203125 21.253906 0.578125 19.078125 0.578125 C 17.054688 0.578125 15.070312 0.238281 13.125 -0.4375 C 11.175781 -1.113281 9.425781 -2.132812 7.875 -3.5 C 6.320312 -4.863281 5.085938 -6.566406 4.171875 -8.609375 C 3.253906 -10.648438 2.796875 -13.03125 2.796875 -15.75 C 2.796875 -18.476562 3.253906 -20.851562 4.171875 -22.875 C 5.085938 -24.894531 6.320312 -26.582031 7.875 -27.9375 C 9.425781 -29.300781 11.175781 -30.320312 13.125 -31 C 15.070312 -31.6875 17.09375 -32.03125 19.1875 -32.03125 C 21.800781 -32.03125 24.300781 -31.472656 26.6875 -30.359375 C 29.082031 -29.253906 31.078125 -27.601562 32.671875 -25.40625 C 34.265625 -23.207031 35.160156 -20.457031 35.359375 -17.15625 Z M 29.34375 -19.140625 C 29 -21.046875 28.3125 -22.570312 27.28125 -23.71875 C 26.25 -24.863281 25.019531 -25.695312 23.59375 -26.21875 C 22.175781 -26.75 20.707031 -27.015625 19.1875 -27.015625 C 17.675781 -27.015625 16.191406 -26.75 14.734375 -26.21875 C 13.273438 -25.695312 12.007812 -24.851562 10.9375 -23.6875 C 9.863281 -22.519531 9.132812 -21.003906 8.75 -19.140625 Z M 29.34375 -19.140625 "/></g></g></g><g fill="#ffffff" fill-opacity="1"><g transform="translate(267.322983, 116.645287)"><g><path d="M 10.09375 -27.65625 C 11.257812 -29.363281 12.664062 -30.519531 14.3125 -31.125 C 15.96875 -31.726562 17.789062 -32.03125 19.78125 -32.03125 C 23.007812 -32.03125 25.625 -31.40625 27.625 -30.15625 C 29.625 -28.914062 31.097656 -27.164062 32.046875 -24.90625 C 33.003906 -22.65625 33.484375 -20.015625 33.484375 -16.984375 L 33.484375 0 L 27.828125 0 L 27.828125 -16.921875 C 27.828125 -18.898438 27.601562 -20.648438 27.15625 -22.171875 C 26.707031 -23.691406 25.867188 -24.867188 24.640625 -25.703125 C 23.421875 -26.535156 21.664062 -26.953125 19.375 -26.953125 C 17.382812 -26.953125 15.695312 -26.515625 14.3125 -25.640625 C 12.9375 -24.765625 11.890625 -23.585938 11.171875 -22.109375 C 10.453125 -20.628906 10.09375 -18.976562 10.09375 -17.15625 L 10.09375 0 L 4.375 0 L 4.375 -31.5625 L 10.09375 -31.5625 Z M 10.09375 -27.65625 "/></g></g></g><g fill="#ffffff" fill-opacity="1"><g transform="translate(305.123648, 116.645287)"><g><path d="M 35.296875 -12.015625 C 34.796875 -9.210938 33.726562 -6.890625 32.09375 -5.046875 C 30.457031 -3.203125 28.507812 -1.820312 26.25 -0.90625 C 24 0.0078125 21.664062 0.46875 19.25 0.46875 C 17.226562 0.46875 15.242188 0.128906 13.296875 -0.546875 C 11.359375 -1.234375 9.609375 -2.253906 8.046875 -3.609375 C 6.492188 -4.972656 5.257812 -6.664062 4.34375 -8.6875 C 3.425781 -10.71875 2.96875 -13.09375 2.96875 -15.8125 C 2.96875 -18.53125 3.425781 -20.910156 4.34375 -22.953125 C 5.257812 -24.992188 6.503906 -26.6875 8.078125 -28.03125 C 9.648438 -29.375 11.410156 -30.382812 13.359375 -31.0625 C 15.304688 -31.75 17.3125 -32.09375 19.375 -32.09375 C 21.78125 -32.09375 24.09375 -31.632812 26.3125 -30.71875 C 28.53125 -29.800781 30.457031 -28.410156 32.09375 -26.546875 C 33.726562 -24.679688 34.796875 -22.347656 35.296875 -19.546875 L 29.40625 -19.546875 C 28.707031 -22.078125 27.414062 -23.953125 25.53125 -25.171875 C 23.644531 -26.398438 21.609375 -27.015625 19.421875 -27.015625 C 17.671875 -27.015625 15.96875 -26.601562 14.3125 -25.78125 C 12.664062 -24.96875 11.316406 -23.734375 10.265625 -22.078125 C 9.210938 -20.429688 8.6875 -18.34375 8.6875 -15.8125 C 8.6875 -13.28125 9.210938 -11.175781 10.265625 -9.5 C 11.316406 -7.832031 12.664062 -6.585938 14.3125 -5.765625 C 15.96875 -4.953125 17.691406 -4.546875 19.484375 -4.546875 C 21.660156 -4.546875 23.679688 -5.164062 25.546875 -6.40625 C 27.421875 -7.65625 28.707031 -9.523438 29.40625 -12.015625 Z M 35.296875 -12.015625 "/></g></g></g><g fill="#ffffff" fill-opacity="1"><g transform="translate(343.33264, 116.645287)"><g><path d="M 35.359375 -17.15625 C 35.398438 -17 35.421875 -16.84375 35.421875 -16.6875 C 35.421875 -16.53125 35.421875 -16.351562 35.421875 -16.15625 C 35.421875 -15.539062 35.359375 -14.957031 35.234375 -14.40625 L 8.515625 -14.40625 C 8.515625 -12.34375 9.066406 -10.570312 10.171875 -9.09375 C 11.285156 -7.625 12.664062 -6.488281 14.3125 -5.6875 C 15.96875 -4.894531 17.578125 -4.5 19.140625 -4.5 C 21.078125 -4.5 22.890625 -4.925781 24.578125 -5.78125 C 26.273438 -6.632812 27.59375 -7.957031 28.53125 -9.75 L 34.421875 -9.75 C 33.640625 -7.445312 32.453125 -5.523438 30.859375 -3.984375 C 29.265625 -2.453125 27.445312 -1.304688 25.40625 -0.546875 C 23.363281 0.203125 21.253906 0.578125 19.078125 0.578125 C 17.054688 0.578125 15.070312 0.238281 13.125 -0.4375 C 11.175781 -1.113281 9.425781 -2.132812 7.875 -3.5 C 6.320312 -4.863281 5.085938 -6.566406 4.171875 -8.609375 C 3.253906 -10.648438 2.796875 -13.03125 2.796875 -15.75 C 2.796875 -18.476562 3.253906 -20.851562 4.171875 -22.875 C 5.085938 -24.894531 6.320312 -26.582031 7.875 -27.9375 C 9.425781 -29.300781 11.175781 -30.320312 13.125 -31 C 15.070312 -31.6875 17.09375 -32.03125 19.1875 -32.03125 C 21.800781 -32.03125 24.300781 -31.472656 26.6875 -30.359375 C 29.082031 -29.253906 31.078125 -27.601562 32.671875 -25.40625 C 34.265625 -23.207031 35.160156 -20.457031 35.359375 -17.15625 Z M 29.34375 -19.140625 C 29 -21.046875 28.3125 -22.570312 27.28125 -23.71875 C 26.25 -24.863281 25.019531 -25.695312 23.59375 -26.21875 C 22.175781 -26.75 20.707031 -27.015625 19.1875 -27.015625 C 17.675781 -27.015625 16.191406 -26.75 14.734375 -26.21875 C 13.273438 -25.695312 12.007812 -24.851562 10.9375 -23.6875 C 9.863281 -22.519531 9.132812 -21.003906 8.75 -19.140625 Z M 29.34375 -19.140625 "/></g></g></g></g></g><g transform="matrix(1, 0, 0, 1, 429, 77)"><g clip-path="url(#72295ecb0f)"><g fill="#ffffff" fill-opacity="1"><g transform="translate(4.09588, 197.387129)"><g><path d="M 135.875 -149.859375 L 75.671875 0.421875 L 59.984375 0.421875 L -0.21875 -149.859375 L 23.109375 -149.859375 L 67.828125 -37.3125 L 112.984375 -149.859375 Z M 135.875 -149.859375 "/></g></g></g><g fill="#ffffff" fill-opacity="1"><g transform="translate(128.708535, 197.387129)"><g><path d="M 8.265625 -73.765625 C 8.265625 -84.222656 10.171875 -94.007812 13.984375 -103.125 C 17.804688 -112.238281 22.894531 -120.1875 29.25 -126.96875 C 35.75 -133.613281 43.59375 -139.054688 52.78125 -143.296875 C 61.96875 -147.535156 71.578125 -149.65625 81.609375 -149.65625 C 92.910156 -149.65625 103.257812 -147.359375 112.65625 -142.765625 C 122.050781 -138.171875 130.035156 -131.738281 136.609375 -123.46875 C 143.179688 -115.207031 147.878906 -105.492188 150.703125 -94.328125 L 129.515625 -94.328125 C 125.554688 -105.492188 119.300781 -113.972656 110.75 -119.765625 C 102.195312 -125.554688 92.484375 -128.453125 81.609375 -128.453125 C 74.546875 -128.453125 67.691406 -126.929688 61.046875 -123.890625 C 54.398438 -120.859375 48.75 -116.867188 44.09375 -111.921875 C 39.425781 -107.117188 35.75 -101.46875 33.0625 -94.96875 C 30.382812 -88.46875 29.046875 -81.398438 29.046875 -73.765625 C 29.046875 -66.421875 30.347656 -59.492188 32.953125 -52.984375 C 35.566406 -46.484375 39.207031 -40.765625 43.875 -35.828125 C 48.539062 -31.015625 54.226562 -27.195312 60.9375 -24.375 C 67.65625 -21.550781 74.546875 -20.140625 81.609375 -20.140625 C 92.910156 -20.140625 102.976562 -23.25 111.8125 -29.46875 C 120.644531 -35.6875 126.96875 -44.375 130.78125 -55.53125 L 151.765625 -55.53125 C 148.941406 -44.375 144.207031 -34.519531 137.5625 -25.96875 C 130.925781 -17.414062 122.835938 -10.769531 113.296875 -6.03125 C 103.753906 -1.300781 93.191406 1.0625 81.609375 1.0625 C 71.578125 1.0625 62.070312 -0.878906 53.09375 -4.765625 C 44.125 -8.648438 36.390625 -13.984375 29.890625 -20.765625 C 23.523438 -27.554688 18.328125 -35.507812 14.296875 -44.625 C 10.273438 -53.738281 8.265625 -63.453125 8.265625 -73.765625 Z M 8.265625 -73.765625 "/></g></g></g></g></g><g transform="matrix(1, 0, 0, 1, 722, 109)"><g clip-path="url(#feb7f83707)"><g fill="#ffffff" fill-opacity="1"><g transform="translate(0.27991, 171.067607)"><g><path d="M 11.40625 0 L 11.40625 -166.84375 L 20.546875 -166.84375 L 20.546875 -92.671875 L 20.765625 -92.671875 C 24.722656 -100.890625 30.769531 -107.316406 38.90625 -111.953125 C 47.050781 -116.597656 56.679688 -118.921875 67.796875 -118.921875 C 81.335938 -118.921875 91.910156 -115.039062 99.515625 -107.28125 C 107.117188 -99.519531 110.921875 -88.789062 110.921875 -75.09375 L 110.921875 0 L 101.796875 0 L 101.796875 -74.640625 C 101.796875 -85.742188 98.675781 -94.453125 92.4375 -100.765625 C 86.195312 -107.085938 77.523438 -110.25 66.421875 -110.25 C 52.265625 -110.25 41.078125 -106.175781 32.859375 -98.03125 C 24.648438 -89.894531 20.546875 -79.207031 20.546875 -65.96875 L 20.546875 0 Z M 11.40625 0 "/></g></g></g><g fill="#ffffff" fill-opacity="1"><g transform="translate(121.450166, 171.067607)"><g><path d="M 53.40625 -118.921875 C 62.238281 -118.921875 69.734375 -116.101562 75.890625 -110.46875 C 82.054688 -104.84375 85.75 -95.710938 86.96875 -83.078125 L 78.75 -80.34375 C 77.6875 -90.6875 74.832031 -98.253906 70.1875 -103.046875 C 65.539062 -107.847656 59.644531 -110.25 52.5 -110.25 C 43.0625 -110.25 35.375 -106.40625 29.4375 -98.71875 C 23.507812 -91.03125 20.546875 -81.101562 20.546875 -68.9375 L 20.546875 0 L 11.40625 0 L 11.40625 -114.359375 L 19.859375 -114.359375 L 19.859375 -95.859375 L 20.09375 -95.859375 C 23.28125 -102.859375 27.765625 -108.453125 33.546875 -112.640625 C 39.328125 -116.828125 45.945312 -118.921875 53.40625 -118.921875 Z M 53.40625 -118.921875 "/></g></g></g><g fill="#ffffff" fill-opacity="1"><g transform="translate(212.955351, 171.067607)"><g><path d="M 66.65625 4.5625 C 54.632812 4.5625 44.132812 2.015625 35.15625 -3.078125 C 26.175781 -8.179688 19.210938 -15.375 14.265625 -24.65625 C 9.316406 -33.9375 6.84375 -44.738281 6.84375 -57.0625 C 6.84375 -69.539062 9.316406 -80.421875 14.265625 -89.703125 C 19.210938 -98.984375 26.175781 -106.171875 35.15625 -111.265625 C 44.132812 -116.367188 54.632812 -118.921875 66.65625 -118.921875 C 78.675781 -118.921875 89.171875 -116.367188 98.140625 -111.265625 C 107.117188 -106.171875 114.082031 -98.984375 119.03125 -89.703125 C 123.976562 -80.421875 126.453125 -69.539062 126.453125 -57.0625 C 126.453125 -44.738281 123.976562 -33.9375 119.03125 -24.65625 C 114.082031 -15.375 107.117188 -8.179688 98.140625 -3.078125 C 89.171875 2.015625 78.675781 4.5625 66.65625 4.5625 Z M 66.65625 -4.109375 C 76.84375 -4.109375 85.738281 -6.3125 93.34375 -10.71875 C 100.957031 -15.132812 106.859375 -21.296875 111.046875 -29.203125 C 115.234375 -37.117188 117.328125 -46.40625 117.328125 -57.0625 C 117.328125 -67.863281 115.234375 -77.21875 111.046875 -85.125 C 106.859375 -93.039062 100.957031 -99.207031 93.34375 -103.625 C 85.738281 -108.039062 76.84375 -110.25 66.65625 -110.25 C 56.457031 -110.25 47.550781 -108.039062 39.9375 -103.625 C 32.332031 -99.207031 26.4375 -93.039062 22.25 -85.125 C 18.070312 -77.21875 15.984375 -67.863281 15.984375 -57.0625 C 15.984375 -46.40625 18.070312 -37.117188 22.25 -29.203125 C 26.4375 -21.296875 32.332031 -15.132812 39.9375 -10.71875 C 47.550781 -6.3125 56.457031 -4.109375 66.65625 -4.109375 Z M 66.65625 -4.109375 "/></g></g></g><g fill="#ffffff" fill-opacity="1"><g transform="translate(346.219796, 171.067607)"><g><path d="M 67.796875 -118.921875 C 81.335938 -118.921875 91.910156 -115.039062 99.515625 -107.28125 C 107.117188 -99.519531 110.921875 -88.789062 110.921875 -75.09375 L 110.921875 0 L 101.796875 0 L 101.796875 -74.640625 C 101.796875 -85.742188 98.675781 -94.453125 92.4375 -100.765625 C 86.195312 -107.085938 77.523438 -110.25 66.421875 -110.25 C 52.265625 -110.25 41.078125 -106.175781 32.859375 -98.03125 C 24.648438 -89.894531 20.546875 -79.207031 20.546875 -65.96875 L 20.546875 0 L 11.40625 0 L 11.40625 -114.359375 L 20.09375 -114.359375 L 20.546875 -92.671875 L 20.765625 -92.671875 C 24.722656 -100.890625 30.769531 -107.316406 38.90625 -111.953125 C 47.050781 -116.597656 56.679688 -118.921875 67.796875 -118.921875 Z M 67.796875 -118.921875 "/></g></g></g></g></g><path stroke-linecap="round" transform="matrix(0, 0.749245, -0.749245, 0, 373.903093, 79.873498)" fill="none" stroke-linejoin="miter" d="M 1.998805 1.9978 L 480.412432 1.9978 " stroke="#5eead4" stroke-width="4" stroke-opacity="1" stroke-miterlimit="4"/><g clip-path="url(#d566edffe4)"><g clip-path="url(#b5cc3817b6)"><g clip-path="url(#bb10966e49)"><g transform="matrix(1, 0, 0, 1, 137, 213)"><g clip-path="url(#6fb652d78b)"><g clip-path="url(#e79a59ee9b)"><g clip-path="url(#f9171549c8)"><g clip-path="url(#897f3353c5)"><path fill="#5eead4" d="M 60.363281 -8.183594 L 100.011719 15.15625 L 31.816406 131.007812 L -7.832031 107.667969 Z M 60.363281 -8.183594 " fill-opacity="1" fill-rule="nonzero"/></g></g></g></g></g></g></g></g><g clip-path="url(#1d7c6906f4)"><g clip-path="url(#1449133093)"><g transform="matrix(1, 0, 0, 1, 91, 213)"><g clip-path="url(#36f6b103bc)"><g clip-path="url(#f882f810d4)"><g clip-path="url(#fc7029fa00)"><path fill="#12615b" d="M 0.109375 0.191406 L 47.511719 0.191406 L 47.511719 47.59375 L 0.109375 47.59375 Z M 0.109375 0.191406 " fill-opacity="1" fill-rule="nonzero"/></g></g></g></g></g></g><g clip-path="url(#0ea4df10cf)"><g clip-path="url(#946edb285a)"><path stroke-linecap="butt" transform="matrix(0.749245, 0, 0, 0.749245, 0.399919, 104.894176)" fill="none" stroke-linejoin="miter" d="M 207.806072 0.000473555 C 93.039555 0.000473555 -0.00197718 93.036792 -0.00197718 207.803309 C -0.00197718 322.569825 93.039555 415.611358 207.806072 415.611358 C 322.572588 415.611358 415.608907 322.569825 415.608907 207.803309 C 415.608907 93.036792 322.572588 0.000473555 207.806072 0.000473555 Z M 207.806072 0.000473555 " stroke="#ffffff" stroke-width="86" stroke-opacity="1" stroke-miterlimit="4"/></g></g></svg>